<?xml version="1.0"?>
<svg version="1.1" xmlns="http://www.w3.org/2000/svg" width="285px" height="60px" style=""><path fill="#f5eded" d="M14.0126953125,25.2685546875q0-0.19921875,0.19091796875-0.298828125t0.4150390625-0.1494140625t0.40673828125-0.0498046875l0.1826171875,0q0.5810546875,0,0.83837890625,0.265625t0.62255859375,0.6806640625q2.490234375,3.6025390625,4.5654296875,7.41259765625t4.0009765625,7.71142578125q0.166015625-4.548828125,0.34033203125-9.15576171875t0.43994140625-9.13916015625q0-0.19921875,0.19091796875-0.33203125t0.431640625-0.19921875t0.48974609375-0.0830078125t0.3818359375-0.0166015625q0.19921875,0,0.43994140625,0.0166015625t0.4814453125,0.099609375t0.3984375,0.19921875t0.15771484375,0.3154296875q0.06640625,0.7138671875,0.07470703125,1.43603515625t0.00830078125,1.43603515625q0,5.345703125-0.232421875,10.4755859375t-0.232421875,10.359375l0,1.1953125q0,0.06640625-0.06640625,0.19921875q0.033203125,0.1328125,0.099609375,0.29052734375t0.06640625,0.22412109375q0,0.265625-0.27392578125,0.3984375t-0.59765625,0.20751953125t-0.57275390625,0.07470703125t-0.1826171875,0q-0.8466796875,0-1.427734375-0.46484375t-0.5810546875-1.1123046875q-1.228515625-2.755859375-2.44873046875-5.47021484375t-2.54833984375-5.40380859375q-0.8466796875-1.693359375-1.70166015625-3.39501953125t-1.83447265625-3.29541015625q0.033203125,0.033203125,0.033203125,0.099609375q0.166015625,1.66015625,0.35693359375,3.31201171875t0.29052734375,3.31201171875q0.06640625,1.427734375,0.1494140625,2.888671875t0.265625,2.888671875q0,0.5478515625-0.34033203125,0.697265625t-0.78857421875,0.1494140625q-0.3818359375,0-0.72216796875-0.099609375t-0.40673828125-0.498046875q0-1.52734375-0.1162109375-3.24560546875t-0.2158203125-3.46142578125q-0.166015625-2.3076171875-0.43994140625-4.68994140625t-0.27392578125-4.65673828125q0-0.099609375,0.0166015625-0.20751953125t0.0166015625-0.24072265625q-0.099609375-0.166015625-0.22412109375-0.3486328125t-0.12451171875-0.33203125z M32.451552734375,41.48828125q0-1.162109375,0.25732421875-2.7392578125t0.87158203125-2.98828125t1.61865234375-2.39892578125t2.53173828125-0.98779296875q1.427734375,0,2.1416015625,0.82177734375t0.7138671875,2.21630859375q0,0.9130859375-0.34033203125,2.00048828125t-0.97119140625,2.05859375t-1.494140625,1.61865234375t-1.92578125,0.6474609375l-0.431640625-0.033203125q0,0.4482421875,0.1328125,1.20361328125t0.39013671875,1.50244140625t0.6640625,1.3115234375t0.98779296875,0.564453125q0.8466796875,0,1.626953125-0.6806640625t1.4775390625-1.5107421875t1.294921875-1.5107421875t1.095703125-0.6806640625q0.265625,0,0.5478515625,0.0830078125t0.3154296875,0.46484375q0,0.232421875-0.12451171875,0.3818359375t-0.22412109375,0.33203125q-0.5146484375,0.8798828125-1.12060546875,1.6767578125t-1.36962890625,1.4443359375t-1.66845703125,1.02099609375t-2.00048828125,0.37353515625q-1.427734375,0-2.3740234375-0.50634765625t-1.52734375-1.361328125t-0.83837890625-1.9755859375t-0.25732421875-2.34912109375z M35.423232421875,40.2265625l0.46484375,0.4150390625q0.33203125,0.298828125,0.6640625,0.1328125t0.59765625-0.60595703125t0.48974609375-1.08740234375t0.3984375-1.328125t0.25732421875-1.328125t0.0830078125-1.0791015625l0-0.564453125t-0.0498046875-0.59765625t-0.17431640625-0.47314453125t-0.39013671875-0.24072265625q-0.0830078125-0.0166015625-0.1494140625-0.0166015625q-0.564453125,0-0.962890625,0.7138671875q-0.431640625,0.796875-0.697265625,1.93408203125t-0.3818359375,2.33251953125t-0.1494140625,1.79296875z M46.35818359375,42.1357421875q0-0.6142578125,0.02490234375-1.80126953125t0.17431640625-2.41552734375t0.48974609375-2.224609375t1.02099609375-1.2783203125q0.166015625-0.06640625,0.53955078125-0.1162109375t0.7470703125-0.033203125t0.6640625,0.1328125t0.29052734375,0.431640625q0,0.06640625-0.06640625,0.1826171875t-0.3486328125,0.365234375q-0.5146484375,1.427734375-0.630859375,2.8388671875t-0.1162109375,2.9052734375q0,0.8798828125,0.05810546875,1.759765625t0.19091796875,1.7763671875q0.265625-0.3818359375,0.53955078125-1.1455078125t0.5810546875-1.66845703125t0.630859375-1.83447265625t0.73046875-1.693359375t0.896484375-1.26171875t1.10400390625-0.498046875q0.6806640625,0,1.13720703125,0.85498046875t0.8466796875,1.9755859375t0.73046875,2.2744140625t0.82177734375,1.76806640625q0.232421875-0.232421875,0.37353515625-0.60595703125t0.22412109375-0.80517578125t0.099609375-0.85498046875t0.0166015625-0.72216796875q0-0.7470703125-0.22412109375-1.61865234375t-0.47314453125-1.63525390625t-0.47314453125-1.28662109375t-0.22412109375-0.60595703125q0-0.1328125,0.14111328125-0.2158203125t0.32373046875-0.1328125t0.37353515625-0.06640625t0.29052734375-0.0166015625q0.6142578125,0,1.05419921875,0.6806640625t0.697265625,1.5771484375t0.37353515625,1.81787109375t0.1162109375,1.43603515625q0,0.6474609375-0.099609375,1.3779296875t-0.37353515625,1.35302734375t-0.80517578125,1.03759765625t-1.3447265625,0.4150390625q-0.9794921875,0-1.6103515625-0.5478515625t-1.02099609375-1.328125t-0.6142578125-1.70166015625t-0.42333984375-1.66845703125q-0.3818359375,0.8798828125-0.697265625,2.224609375t-0.796875,2.6396484375t-1.228515625,2.2080078125t-1.9423828125,0.9130859375t-1.70166015625-0.58935546875t-0.80517578125-1.61865234375l0.033203125,0.033203125q-0.19921875-0.7470703125-0.25732421875-1.494140625t-0.05810546875-1.494140625z"/><path fill="#615efc" d="M54.15,40.99q0.49,0,0.49,1.155q0,1.75-1.7325,3.2725t-3.9725,1.5225q-1.435,0-2.765-0.7q-2.835-1.54-2.835-5.355q0-2.695,1.47-5.285q2.03-3.535,5.8275-5.6t7.4025-2.065q2.625,0,4.305,1.155q1.89,1.295,1.89,3.85q0,3.255-3.15,10.2025t-3.15,7.8575q0,0.28,0.175,0.175q0.91-0.595,8.3475-9.5025t10.3425-11.0075q2.59-1.925,4.3225-2.8875t3.5525-0.9625q0.49,0,0.735,0.035q0.945,0.07,0.945,0.98q0,0.455-0.315,0.455q-0.035,0-0.49-0.1575t-0.77-0.1575q-4.9,0-13.195,8.855q-3.115,3.325-7.5775,8.96t-5.2675,6.09q-2.835,1.61-3.185,1.61q-0.105,0-0.105-0.35q0-1.155,1.96-5.88q0.805-1.82,2.345-5.46l1.61-4.725q0.84-2.38,0.84-3.465q0-2.415-1.4-3.675t-4.025-1.26t-5.635,1.855q-3.255,2.1-4.865,5.18t-1.61,5.215t0.875,3.36q1.435,1.995,3.815,1.995q1.82,0,3.22-1.2075t1.4-3.0625q0-0.385-0.0875-0.7t0.2625-0.315z M102.80595,40.99l3.395-0.07q1.26,0,1.26,0.175q0,0.455-5.11,0.805q-3.255,6.37-3.255,8.68q0,1.61,1.015,1.61q0.385,0,0.9625-0.4725t0.7-0.4725t0.1225,0.175q-0.175,0.63-1.0675,1.05t-1.505,0.42t-0.9625-0.07q-0.84-0.315-0.84-2.03q0-3.535,2.695-8.995l-4.2,0.105q-4.69,4.585-9.415,8.05q-7.07,5.145-11.06,5.145q-0.245,0-0.49-0.035q-5.39-0.455-5.39-5.53q0-3.01,1.89-6.37q2.52-4.48,6.895-7.6475t7.84-3.1675t3.465,2.555q0,1.715-1.05,3.815t-2.135,2.66q-0.105,0.035-0.2275,0.035t-0.1225-0.07l1.155-1.89q1.19-1.855,1.19-3.255t-0.6125-2.2575t-1.9425-0.8575q-2.73,0-6.5275,3.045t-5.775,7.49t-1.9775,6.93q0,3.745,3.815,3.745q3.64,0,9.87-4.69q2.765-2.065,8.995-7.805q-1.225,0.07-2.275,0.245q-2.24,0.42-2.1-0.14q0.14-1.295,1.33-1.295q2.31,0.28,3.885,0.28q3.01-2.765,8.995-9.065q4.025-4.235,4.9-4.235q0.385,0,0.385,0.595t-0.315,1.855t-0.7,1.54q-0.805,0.56-1.505,1.5225t-1.995,3.605t-2.205,4.2875z M105.60595,32.45l-8.96,8.4l2.065,0q0.735,0.035,1.82,0.035q1.015-1.995,5.075-8.435z M125.8769,41.27q-2.1,0-3.535-0.9625t-1.435-2.4325q0-1.855,2.415-3.71q0.42-0.315,0.63-0.315t0.21,0.14q0,0.35-0.56,0.56q-1.96,1.575-1.96,3.185q0,1.155,1.05,1.9425t2.625,0.7875q3.43,0,6.475-3.29q1.575-1.715,1.575-3.955t-1.68-3.325q-1.4-0.98-3.78-0.98q-3.43,0-6.895,1.715q-4.27,2.065-7.7175,6.4225t-3.4475,8.3825q0,3.185,2.17,4.9175t5.39,1.7325q3.675,0,7.21-1.785q2.695-1.4,4.655-3.57q0.56-0.63,0.875-0.63q0.21,0,0.21,0.3675t-0.385,0.7525q-1.855,1.96-5.355,3.78q-4.305,2.275-8.6625,2.275t-6.4925-2.87q-1.435-1.89-1.435-4.515q0-1.155,0.28-2.485q0.945-4.48,4.97-8.715q2.905-3.045,6.895-4.7425t7.56-1.6975q1.89,0,3.29,0.455q3.815,1.19,3.815,4.795q0,2.205-1.295,3.815q-3.22,3.955-7.665,3.955z M167.00785,40.99l3.395-0.07q1.26,0,1.26,0.175q0,0.455-5.11,0.805q-3.255,6.37-3.255,8.68q0,1.61,1.015,1.61q0.385,0,0.9625-0.4725t0.7-0.4725t0.1225,0.175q-0.175,0.63-1.0675,1.05t-1.505,0.42t-0.9625-0.07q-0.84-0.315-0.84-2.03q0-3.535,2.695-8.995l-4.2,0.105q-4.69,4.585-9.415,8.05q-7.07,5.145-11.06,5.145q-0.245,0-0.49-0.035q-5.39-0.455-5.39-5.53q0-3.01,1.89-6.37q2.52-4.48,6.895-7.6475t7.84-3.1675t3.465,2.555q0,1.715-1.05,3.815t-2.135,2.66q-0.105,0.035-0.2275,0.035t-0.1225-0.07l1.155-1.89q1.19-1.855,1.19-3.255t-0.6125-2.2575t-1.9425-0.8575q-2.73,0-6.5275,3.045t-5.775,7.49t-1.9775,6.93q0,3.745,3.815,3.745q3.64,0,9.87-4.69q2.765-2.065,8.995-7.805q-1.225,0.07-2.275,0.245q-2.24,0.42-2.1-0.14q0.14-1.295,1.33-1.295q2.31,0.28,3.885,0.28q3.01-2.765,8.995-9.065q4.025-4.235,4.9-4.235q0.385,0,0.385,0.595t-0.315,1.855t-0.7,1.54q-0.805,0.56-1.505,1.5225t-1.995,3.605t-2.205,4.2875z M169.80785,32.45l-8.96,8.4l2.065,0q0.735,0.035,1.82,0.035q1.015-1.995,5.075-8.435z M185.2138,50.58q-0.84,1.295-0.84,1.6975t0.315,0.5425q0,0.07-0.5775,0.4375t-1.5925,0.3675t-1.015-0.525q0-0.91,3.4475-6.0375t4.5325-7.0875q2.38-4.27,2.38-6.755q0-0.98-0.385-1.82q-0.595-1.26-2.87-1.26q-4.165,0-8.855,3.815q-3.57,2.94-5.495,6.09q-1.75,2.975-1.75,5.32q0,3.36,3.115,3.43l0.28,0q4.13,0,6.265-2.905q0.84-1.155,0.84-1.96t-0.385-1.015q-0.035-0.035-0.035-0.14t0.21-0.105q0.91,0,0.91,1.19q0,0.735-0.7,1.995t-2.5375,2.38t-4.1825,1.12t-3.71-1.365t-1.365-3.675q0-5.46,7.49-11.48q1.89-1.505,4.9175-2.52t5.495-1.015t3.4825,0.9275t1.015,2.5725q0,3.99-4.83,11.305q1.085-1.365,3.535-3.465q8.715-7.315,14.98-9.625q0.315-0.14,0.7-0.14q1.33,0,1.68,1.505q0.175,0.595-1.68,2.485q-4.375,4.48-7.42,9.8t-3.045,7.63q0,0.56,0.21,0.7875t0.665,0.14t1.9075-0.7175t1.9075-0.735q0.175,0.07,0.175,0.175q0,0.525-1.8375,1.47t-2.7475,0.945t-1.155-0.315q-0.63-0.875-0.63-2.205q0-3.01,3.22-8.645q2.065-3.535,6.37-9.52q-4.655,0.42-12.04,7.35q-5.88,5.565-8.365,9.555z M223.99975,41.27q-2.1,0-3.535-0.9625t-1.435-2.4325q0-1.855,2.415-3.71q0.42-0.315,0.63-0.315t0.21,0.14q0,0.35-0.56,0.56q-1.96,1.575-1.96,3.185q0,1.155,1.05,1.9425t2.625,0.7875q3.43,0,6.475-3.29q1.575-1.715,1.575-3.955t-1.68-3.325q-1.4-0.98-3.78-0.98q-3.43,0-6.895,1.715q-4.27,2.065-7.7175,6.4225t-3.4475,8.3825q0,3.185,2.17,4.9175t5.39,1.7325q3.675,0,7.21-1.785q2.695-1.4,4.655-3.57q0.56-0.63,0.875-0.63q0.21,0,0.21,0.3675t-0.385,0.7525q-1.855,1.96-5.355,3.78q-4.305,2.275-8.6625,2.275t-6.4925-2.87q-1.435-1.89-1.435-4.515q0-1.155,0.28-2.485q0.945-4.48,4.97-8.715q2.905-3.045,6.895-4.7425t7.56-1.6975q1.89,0,3.29,0.455q3.815,1.19,3.815,4.795q0,2.205-1.295,3.815q-3.22,3.955-7.665,3.955z M243.7807,59.89q-1.33,0-2.6075-0.945t-1.2775-2.1q0-0.735,0.735-0.735q0.175,0,0.525,0.07q0.42,1.47,0.7,1.995q0.595,0.945,2.03,0.945q4.305,0,10.57-11.76l6.3-11.235q-6.755,7.21-9.5725,10.0275t-3.8675,3.4475q-2.1,1.26-3.465,1.26q-1.995,0-1.995-2.345q0-2.8,2.38-5.775q0.175-0.21,1.4875-1.8025t3.08-3.7975t2.94-4.2525t1.1725-2.87t-0.49-1.0675q-1.015-0.525-2.31-0.525q-3.71,0-10.255,4.48q-2.73,1.855-4.34,4.305t-1.61,4.515t1.995,2.59q0.63,0.175,1.225,0.175q1.785,0,3.955-1.54q2.555-1.715,2.87-1.82q-0.35,1.295-2.765,2.835q-2.66,1.645-4.97,1.645q-0.315,0-1.1725-0.1225t-1.6975-1.2775t-0.84-2.8q0-4.76,6.965-9.73q2.03-1.47,5.355-2.66t5.3725-1.19t3.115,0.6475t1.0675,2.065t-1.96,4.41t-6.195,8.1375q-0.875,1.015-1.61,2.6425t-0.735,2.59t0.7525,0.9625t2.2575-1.085q4.27-3.045,8.5225-7.385t6.2475-7.28q1.435-2.065,3.045-2.065q0.56,0,0.56,0.35q0,0.07-0.07,0.28q-4.41,7.7-12.005,20.44q-2.24,3.675-4.7775,5.5125t-4.6375,1.8375z"/></svg>
